<?xml version="1.0" encoding="UTF-8" standalone="no"?>
<!-- Created with Inkscape (http://www.inkscape.org/) -->

<svg
   xmlns:dc="http://purl.org/dc/elements/1.1/"
   xmlns:cc="http://creativecommons.org/ns#"
   xmlns:rdf="http://www.w3.org/1999/02/22-rdf-syntax-ns#"
   xmlns:svg="http://www.w3.org/2000/svg"
   xmlns="http://www.w3.org/2000/svg"
   xmlns:sodipodi="http://sodipodi.sourceforge.net/DTD/sodipodi-0.dtd"
   xmlns:inkscape="http://www.inkscape.org/namespaces/inkscape"
   width="877.8172mm"
   height="666.35291mm"
   viewBox="0 0 877.8172 666.35291"
   version="1.1"
   id="svg8"
   inkscape:version="0.92.4 (5da689c313, 2019-01-14)"
   sodipodi:docname="dragon.svg">
  <defs
     id="defs2" />
  <sodipodi:namedview
     id="base"
     pagecolor="#ffffff"
     bordercolor="#666666"
     borderopacity="1.0"
     inkscape:pageopacity="0.0"
     inkscape:pageshadow="2"
     inkscape:zoom="0.175"
     inkscape:cx="1062.1416"
     inkscape:cy="1613.0075"
     inkscape:document-units="mm"
     inkscape:current-layer="layer2"
     showgrid="false"
     inkscape:window-width="1920"
     inkscape:window-height="1017"
     inkscape:window-x="1592"
     inkscape:window-y="-8"
     inkscape:window-maximized="1" />
  <metadata
     id="metadata5">
    <rdf:RDF>
      <cc:Work
         rdf:about="">
        <dc:format>image/svg+xml</dc:format>
        <dc:type
           rdf:resource="http://purl.org/dc/dcmitype/StillImage" />
        <dc:title></dc:title>
      </cc:Work>
    </rdf:RDF>
  </metadata>
  <g
     inkscape:groupmode="layer"
     id="layer2"
     inkscape:label="Layer 2"
     style="display:inline"
     transform="translate(678.36404,168.97764)">
    <path
       style="opacity:1;fill:#000000;fill-opacity:1;stroke:#000000;stroke-width:0.26458332px;stroke-linecap:butt;stroke-linejoin:miter;stroke-opacity:1"
       d="m -678.33003,-3.410945 c 145.50387,-38.71036 279.59881,-19.404323 383.79903,91.433035 17.33134,-10.448942 34.75968,-9.370735 45.43581,-18.735727 35.09817,-34.57757 31.92404,-91.395688 2.13815,-99.424258 -27.79601,11.1884 -55.59205,1.63642 -83.38807,0 67.56031,-64.527276 177.42247,-104.070315 230.920869,-116.529515 -28.776149,22.58418 -60.159799,43.34312 -82.319039,70.559145 56.38339,47.932535 21.08937,137.992192 17.6398,156.352684 C -97.612457,132.98904 -82.129011,-8.6508583 -57.997465,-46.975879 45.767723,-122.35762 126.35492,-147.22809 199.38308,-168.85079 107.6155,-111.5465 137.79009,-17.357592 161.16354,47.63753 31.564299,71.297333 27.424307,156.55095 -11.225319,205.05928 c -88.563445,-20.87291 -111.900361,16.45221 -123.478511,27.79604 25.00273,107.56569 -6.51203,200.76791 -48.64306,247.22432 -52.58704,41.23772 -101.88198,-2.22967 -105.30419,-22.18337 -10.07812,-35.9418 10.82298,-56.22856 23.51972,-61.73928 24.2385,-8.53081 45.66196,9.09984 49.44486,15.23437 -19.61292,-7.12896 -37.47929,-12.24937 -43.03039,-3.20722 -16.20296,10.77082 -16.63905,26.17874 -12.82894,41.69404 12.35373,37.73617 60.15022,17.77896 62.80834,6.41447 39.44505,-69.20971 10.61485,-134.42338 -5.61266,-159.55994 -14.21796,-22.87296 -34.75875,-47.55243 -40.09042,-67.88644 -14.69481,0.17901 -92.57405,-34.78499 -123.21127,32.87417 0.0472,17.39516 -60.72011,-149.76044 -190.29588,-96.21704 -3.7853,-9.09572 47.42054,-137.191994 -110.38231,-168.914345 z"
       id="path25-6"
       inkscape:connector-curvature="0"
       sodipodi:nodetypes="ccccccccccccccccccccccccc" />
  </g>
</svg>
