<?xml version="1.0" encoding="UTF-8" standalone="no"?>
<!-- Created with Inkscape (http://www.inkscape.org/) -->

<svg
   xmlns:dc="http://purl.org/dc/elements/1.1/"
   xmlns:cc="http://creativecommons.org/ns#"
   xmlns:rdf="http://www.w3.org/1999/02/22-rdf-syntax-ns#"
   xmlns:svg="http://www.w3.org/2000/svg"
   xmlns="http://www.w3.org/2000/svg"
   xmlns:sodipodi="http://sodipodi.sourceforge.net/DTD/sodipodi-0.dtd"
   xmlns:inkscape="http://www.inkscape.org/namespaces/inkscape"
   width="1100"
   height="1100"
   viewBox="0 0 931.33334 931.33334"
   version="1.1"
   id="svg8"
   inkscape:version="0.92.4 (5da689c313, 2019-01-14)"
   sodipodi:docname="dragon.svg"
   inkscape:export-filename="C:\Users\Caitlin\Dropbox\Flyghtcss\assets\favicon.png"
   inkscape:export-xdpi="96"
   inkscape:export-ydpi="96">
  <defs
     id="defs2" />
  <sodipodi:namedview
     id="base"
     pagecolor="#ffffff"
     bordercolor="#666666"
     borderopacity="1.0"
     inkscape:pageopacity="0.0"
     inkscape:pageshadow="2"
     inkscape:zoom="0.70710678"
     inkscape:cx="379.36357"
     inkscape:cy="603.03894"
     inkscape:document-units="mm"
     inkscape:current-layer="layer2"
     showgrid="false"
     inkscape:window-width="1920"
     inkscape:window-height="1017"
     inkscape:window-x="1592"
     inkscape:window-y="-8"
     inkscape:window-maximized="1"
     units="px"
     fit-margin-top="0"
     fit-margin-left="0"
     fit-margin-right="0"
     fit-margin-bottom="0"
     scale-x="3.2" />
  <metadata
     id="metadata5">
    <rdf:RDF>
      <cc:Work
         rdf:about="">
        <dc:format>image/svg+xml</dc:format>
        <dc:type
           rdf:resource="http://purl.org/dc/dcmitype/StillImage" />
        <dc:title></dc:title>
      </cc:Work>
    </rdf:RDF>
  </metadata>
  <g
     inkscape:groupmode="layer"
     id="layer2"
     inkscape:label="Layer 2"
     style="display:inline"
     transform="translate(707.97117,404.4467)">
    <path
       style="fill:#000000;fill-opacity:1;stroke:#000000;stroke-width:1.51190484;opacity:1;stroke-opacity:1"
       d="m -264.4909,409.48391 c -18.92102,-6.2625 -35.59958,-21.36788 -39.89041,-36.12782 -3.35418,-11.53792 -2.28854,-30.53342 2.20094,-39.23339 10.29517,-19.95057 28.7697,-27.8388 48.71677,-20.80107 6.09666,2.15104 17.35233,9.49624 16.24645,10.60212 -0.27445,0.27445 -5.237,-0.81478 -11.02786,-2.42054 -15.41933,-4.27567 -20.69372,-3.89387 -27.55064,1.99411 -11.53467,9.90481 -14.41569,15.43383 -14.41569,27.66528 0,28.87761 19.02804,42.94087 46.90092,34.66352 10.84037,-3.21924 16.22059,-8.35271 23.10521,-22.04554 17.04689,-33.9046 19.81539,-76.27479 7.41961,-113.55242 -6.24073,-18.76763 -12.51665,-30.46859 -32.88636,-61.31417 -9.87362,-14.95147 -19.49614,-30.98903 -21.38342,-35.63897 -1.88727,-4.64995 -4.55271,-8.79481 -5.92317,-9.21078 -1.37044,-0.41598 -11.08168,-2.4809 -21.5805,-4.5887 -48.70781,-9.77887 -79.57976,0.0381 -96.26272,30.61052 l -4.35705,7.98454 -5.77718,-9.49645 c -19.13935,-31.46107 -42.14201,-58.47773 -62.87738,-73.849493 -12.70263,-9.416842 -32.12063,-18.507262 -46.2806,-21.665962 -19.5658,-4.3646 -45.79485,-2.6348 -65.32726,4.30836 -3.66378,1.30236 -6.99073,2.03862 -7.39322,1.63614 -0.40248,-0.40249 0.38575,-9.08429 1.75162,-19.29295 2.97407,-22.22836 3.06484,-35.834611 0.34089,-51.1006594 -6.47506,-36.2887556 -27.30923,-62.5896396 -63.42552,-80.0678496 -14.20697,-6.87535 -38.28942,-14.96587 -45.49935,-15.28554 -5.53186,-0.24526 23.57979,-7.24409 46.04774,-11.07049 33.00954,-5.621686 58.91097,-7.462386 91.47023,-6.500376 89.00041,2.62964 163.07992,33.885946 227.94959,96.178579 l 13.25911,12.7323706 7.15161,-3.2711566 c 3.93338,-1.79913801 11.91408,-4.70721 17.73492,-6.462379 15.71844,-4.7395955 21.20527,-8.068856 27.76167,-16.844995 12.37824,-16.568973 18.35144,-33.434793 18.35144,-51.816633 0,-13.53955 -3.0871,-24.01247 -9.28854,-31.511306 -6.87916,-8.31835 -11.967,-10.15649 -20.76534,-7.50216 -11.76084,3.54806 -26.89731,4.00882 -46.55442,1.41715 -10.11999,-1.33425 -20.55215,-2.42592 -23.18255,-2.42592 -6.00771,0 -5.57237,-1.0501 3.78489,-9.12987 38.51373,-33.25565 93.16423,-63.7326 156.67519,-87.37307 19.47973,-7.25087 57.2145,-18.95061 58.139,-18.02611 0.23485,0.23486 -9.83924,8.2406 -22.38687,17.79054 -12.54765,9.54993 -30.33857,24.674 -39.53538,33.60905 l -16.72151,16.24552 6.99021,7.189 c 27.13149,27.90312 32.13036,68.721656 16.11635,131.598655 -5.37114,21.08915299 -5.80596,19.579893 7.54743,26.1983306 10.62291,5.265118 18.42462,5.43687 28.26538,0.622239 16.6456,-8.1439356 27.96598,-28.4283446 46.851357,-83.9504786 18.07736,-53.146666 15.10974,-48.779176 47.888334,-70.478336 65.148697,-43.12787 116.698024,-67.45509 195.410139,-92.21817 14.09134,-4.43318 25.83982,-7.8411 26.10776,-7.57317 0.26792,0.26794 -2.29362,2.41423 -5.69235,4.76955 -8.76628,6.07504 -26.97321,25.95651 -32.99912,36.03414 -22.46225,37.56554 -22.1147,85.76023 1.11305,154.343216 l 5.77532,17.05249 -16.76619,4.11318 C 91.209925,-24.265484 65.293215,-10.511506 42.656942,11.66697 25.469612,28.506729 15.843542,42.603195 -3.8973638,79.841315 -11.571419,94.317147 -20.148073,109.31828 -22.956651,113.17715 l -5.106485,7.01611 -9.554765,-2.12955 c -5.255128,-1.17128 -18.78502,-2.55357 -30.066452,-3.07178 -34.342417,-1.57753 -54.413437,4.76363 -73.801177,23.31653 l -10.64427,10.18591 2.88266,14.36309 c 6.7654,33.70913 7.76174,79.42852 2.42176,111.12963 -5.44468,32.32274 -16.31079,64.18196 -30.08995,88.22301 -20.37956,35.55708 -37.25113,48.21401 -66.04899,49.54931 -9.80641,0.45471 -14.90663,-0.0844 -21.52658,-2.2755 z"
       id="path22"
       inkscape:connector-curvature="0"
       inkscape:export-xdpi="96"
       inkscape:export-ydpi="96" />
  </g>
</svg>
